<svg width="146" height="146" viewBox="0 0 146 146" fill="none" xmlns="http://www.w3.org/2000/svg">
<g clip-path="url(#clip0_1_2)">
<path d="M140.309 30.4457C135.039 24.1809 125.309 21.6254 106.726 21.6254H39.2721C20.2643 21.6254 10.3693 24.3457 5.11895 31.0156C0 37.5187 0 47.1005 0 60.362V85.6384C0 111.33 6.0736 124.375 39.2721 124.375H106.727C122.842 124.375 131.771 122.12 137.548 116.591C143.472 110.921 146 101.665 146 85.6384V60.362C146 46.3767 145.604 36.7383 140.309 30.4457ZM93.7325 76.4899L63.1017 92.4985C62.4169 92.8565 61.668 93.034 60.9201 93.034C60.0733 93.034 59.2284 92.8061 58.4801 92.353C57.0709 91.4991 56.2105 89.9718 56.2105 88.3243V56.4097C56.2105 54.7651 57.0686 53.2391 58.4749 52.3848C59.8817 51.5305 61.6313 51.4721 63.0908 52.2303L93.7216 68.1358C95.2801 68.945 96.2587 70.5538 96.2611 72.3091C96.263 74.0658 95.2885 75.677 93.7325 76.4899Z" fill="#DFDFDF"/>
</g>
<defs>
<clipPath id="clip0_1_2">
<rect width="146" height="146" fill="white"/>
</clipPath>
</defs>
</svg>
